:SAMPLES-PER-SECOND 30
:FULLY-SPECIFIED
:DEGREES
117
root  75.2962 38.9313 -2.47264 -159.081 82.7967 -166.546
RightUpLeg  -13.6505 4.97721 5.09784
RightLeg  36.9223 9.16362 -0.62066
RightFoot  5.3477 -0.851186 5.21935
RightToes  1.74622e-010 -3.18055e-015 8.94531e-016
Spine  -1.92702 -1.74007 -3.47283
Spine1  7.75155 -3.26809 5.10505
HEad  -26.4841 -0.905989 7.99762
LeftShoulder1  0 -2.69403e-036 -1.28585e-037
LeftArm  27.7938 41.7168 -83.8412
LeftForeArm  -53.2204 -26.06 16.4958
LeftHand  0.892553 6.75685 5.08959
RightShoulder  -2.48481e-017 0 -8.08114e-019
RightArm  40.0101 -47.6745 80.4842
RightForeArm  -45.1432 21.0877 -20.1592
RightHand  1.54793 -12.9431 -4.74594
LeftUpLeg  -9.94173 -13.7004 -2.33717
LeftLeg  31.3516 -2.26106 5.23856
LeftFoot  1.23947 0.987098 -7.64467
LeftToes  -8.00353e-011 5.68142e-011 4.78552e-012
118
root  77.9485 40.9043 -2.726 -155.082 83.9471 -161.701
RightUpLeg  -9.13117 5.7886 5.02029
RightLeg  31.1794 9.96924 0.178222
RightFoot  25.3395 -2.1731 6.19865
RightToes  1.74622e-010 -3.18055e-015 8.94531e-016
Spine  -8.93906 -1.53678 -2.17173
Spine1  11.8204 -2.84029 4.16217
HEad  -17.6952 -2.06713 6.90712
LeftShoulder1  0 -2.69403e-036 -1.28585e-037
LeftArm  23.856 47.8032 -83.611
LeftForeArm  -50.5331 -27.4728 17.4971
LeftHand  0.953049 6.98087 0.385846
RightShoulder  -2.48481e-017 0 -8.08114e-019
RightArm  40.0334 -51.2493 79.1991
RightForeArm  -42.8283 21.323 -20.9471
RightHand  1.39032 -12.3849 -3.2795
LeftUpLeg  -5.46519 -10.9248 -2.16151
LeftLeg  26.4657 -2.48102 3.87158
LeftFoot  19.9283 1.86512 -6.0208
LeftToes  -8.00353e-011 5.68142e-011 4.78552e-012
119
root  80.1504 42.5509 -2.92579 -149.539 85.2174 -155.38
RightUpLeg  -9.36384 8.09912 5.00983
RightLeg  32.6596 10.3697 0.427344
RightFoot  34.9405 -2.95566 6.59488
RightToes  1.74622e-010 -3.18055e-015 8.94531e-016
Spine  -11.4885 -0.946964 -0.944118
Spine1  14.8283 -2.12835 3.09301
HEad  -15.0853 -2.57595 5.19962
LeftShoulder1  0 -2.69403e-036 -1.28585e-037
LeftArm  19.5892 51.7704 -83.8178
LeftForeArm  -47.6002 -28.2986 17.9425
LeftHand  0.845222 6.04939 -1.50494
RightShoulder  -2.48481e-017 0 -8.08114e-019
RightArm  37.8836 -53.0454 77.8211
RightForeArm  -41.4492 22.5687 -21.919
RightHand  1.34593 -11.9613 -3.48864
LeftUpLeg  -6.70951 -8.88906 -2.16426
LeftLeg  30.3145 -4.84227 3.30322
LeftFoot  26.9202 1.91807 -4.99229
LeftToes  -8.00353e-011 5.68142e-011 4.78552e-012
120
root  81.9846 43.7853 -3.06655 -146.685 85.7 -151
RightUpLeg  -11.5357 8.22692 5.2044
RightLeg  38.6875 10.2548 0.244975
RightFoot  33.8682 -2.32573 5.31934
RightToes  1.74622e-010 -3.18055e-015 8.94531e-016
Spine  -8.55073 -0.60059 0.193218
Spine1  15.3628 -1.51162 1.64982
HEad  -18.9075 -1.09445 6.84962
LeftShoulder1  0 -2.69403e-036 -1.28585e-037
LeftArm  21.0362 52.6501 -83.9507
LeftForeArm  -48.4387 -27.0276 17.4261
LeftHand  0.697922 5.11855 0.0428265
RightShoulder  -2.48481e-017 0 -8.08114e-019
RightArm  35.6454 -53.0729 78.0078
RightForeArm  -43.781 23.2114 -22.1878
RightHand  1.39686 -12.0321 -4.32233
LeftUpLeg  -9.95933 -8.59456 -2.01116
LeftLeg  37.502 -7.27679 2.80787
LeftFoot  23.7157 1.71269 -4.87976
LeftToes  -8.00353e-011 5.68142e-011 4.78552e-012
121
root  83.7018 44.6997 -3.17333 -150.21 85.6992 -152.954
RightUpLeg  -13.8524 5.52454 5.14964
RightLeg  43.3825 9.65611 -0.470669
RightFoot  29.9071 -1.45864 3.67277
RightToes  1.74622e-010 -3.18055e-015 8.94531e-016
Spine  -3.38068 -0.79182 1.11465
Spine1  13.8184 -1.04748 -0.644665
HEad  -19.1575 -0.432788 8.20754
LeftShoulder1  0 -2.69403e-036 -1.28585e-037
LeftArm  22.3128 52.8741 -83.6485
LeftForeArm  -47.9735 -24.9321 14.8219
LeftHand  0.667841 5.18784 2.00642
RightShoulder  -2.48481e-017 0 -8.08114e-019
RightArm  34.3961 -52.6599 80.6792
RightForeArm  -47.1335 22.4861 -21.553
RightHand  1.40707 -12.302 -3.80387
LeftUpLeg  -12.865 -9.27656 -1.66502
LeftLeg  40.9665 -7.84876 2.86681
LeftFoot  18.1172 1.56717 -5.35315
LeftToes  -8.00353e-011 5.68142e-011 4.78552e-012
122
root  85.4357 45.4097 -3.25569 -156.454 85.9361 -158.507
RightUpLeg  -16.5381 2.52005 4.78331
RightLeg  43.9489 9.56786 -0.588586
RightFoot  28.9434 -1.58965 4.10643
RightToes  1.74622e-010 -3.18055e-015 8.94531e-016
Spine  0.755405 -0.460911 -1.57223
Spine1  12.1962 -1.48223 2.38982
HEad  -16.9715 -1.07023 7.20223
LeftShoulder1  0 -2.69403e-036 -1.28585e-037
LeftArm  17.7425 53.4246 -85.6346
LeftForeArm  -42.714 -23.3228 10.4864
LeftHand  0.743194 5.64008 1.6851
RightShoulder  -2.48481e-017 0 -8.08114e-019
RightArm  36.2911 -52.1363 80.6955
RightForeArm  -47.7744 21.3811 -20.5889
RightHand  1.30117 -12.1615 -2.09777
LeftUpLeg  -15.4758 -10.0256 -1.33079
LeftLeg  38.8812 -6.75593 3.50803
LeftFoot  14.1848 1.46013 -5.76753
LeftToes  -8.00353e-011 5.68142e-011 4.78552e-012
123
root  87.1935 45.7874 -3.32372 -163.466 86.4309 -165.5
RightUpLeg  -19.2929 0.707939 4.53318
RightLeg  40.7503 10.5596 0.493926
RightFoot  29.8337 -2.40158 6.07207
RightToes  1.74622e-010 -3.18055e-015 8.94531e-016
Spine  3.51501 -0.477204 -3.8937
Spine1  11.7277 -1.86231 3.7327
HEad  -15.4043 -1.15549 6.87163
LeftShoulder1  0 -2.69403e-036 -1.28585e-037
LeftArm  13.9677 54.6368 -86.2444
LeftForeArm  -37.9004 -22.269 8.17342
LeftHand  0.797474 5.8464 0.0843556
RightShoulder  -2.48481e-017 0 -8.08114e-019
RightArm  39.8826 -50.4623 80.9787
RightForeArm  -48.8358 21.1365 -19.6838
RightHand  1.18586 -11.5918 -1.05186
LeftUpLeg  -17.9636 -10.7676 -0.955864
LeftLeg  33.7194 -5.03792 3.86883
LeftFoot  10.815 1.15004 -5.20524
LeftToes  -8.00353e-011 5.68142e-011 4.78552e-012
124
root  88.9592 45.7359 -3.41287 -167.466 86.8038 -169.595
RightUpLeg  -21.1631 -0.422283 4.75086
RightLeg  34.8867 12.4728 2.00686
RightFoot  27.9505 -2.89222 7.68416
RightToes  1.74622e-010 -3.18055e-015 8.94531e-016
Spine  5.89789 -0.419323 -5.65159
Spine1  12.0119 -2.1672 4.96904
HEad  -14.9707 -0.47394 6.53945
LeftShoulder1  0 -2.69403e-036 -1.28585e-037
LeftArm  14.1634 56.0332 -87.1834
LeftForeArm  -38.1574 -22.4641 8.61829
LeftHand  0.828193 5.92527 -1.38277
RightShoulder  -2.48481e-017 0 -8.08114e-019
RightArm  42.4029 -48.8689 81.1189
RightForeArm  -50.7736 21.1936 -19.4824
RightHand  1.15491 -11.2658 -1.1573
LeftUpLeg  -20.1 -11.7087 -0.143734
LeftLeg  27.5457 -3.18583 3.7347
LeftFoot  8.13702 0.940322 -4.81282
LeftToes  -8.00353e-011 5.68142e-011 4.78552e-012
125
root  90.7336 45.3385 -3.55057 -159.731 87.0373 -162.235
RightUpLeg  -22.353 -1.23113 5.71326
RightLeg  27.1349 14.3793 2.7606
RightFoot  22.9961 -2.72513 8.31944
RightToes  1.74622e-010 -3.18055e-015 8.94531e-016
Spine  7.44892 -0.381289 -5.77362
Spine1  12.4031 -2.24333 5.55496
HEad  -13.6667 0.544936 6.14772
LeftShoulder1  0 -2.69403e-036 -1.28585e-037
LeftArm  15.9957 57.9338 -87.8655
LeftForeArm  -40.7723 -23.2117 10.3916
LeftHand  0.840912 5.87525 -2.74575
RightShoulder  -2.48481e-017 0 -8.08114e-019
RightArm  42.0182 -48.0751 81.7624
RightForeArm  -51.5257 21.1705 -19.1302
RightHand  1.16951 -11.3321 -1.32623
LeftUpLeg  -22.0886 -12.5548 1.46244
LeftLeg  20.8975 -1.15047 3.19526
LeftFoot  8.77842 1.06353 -5.2878
LeftToes  -8.00353e-011 5.68142e-011 4.78552e-012
126
root  92.5465 44.5721 -3.7015 -145.09 87.0173 -148.314
RightUpLeg  -23.5588 -0.855179 6.84324
RightLeg  18.4504 13.9802 1.93591
RightFoot  20.3838 -2.66946 8.82772
RightToes  1.74622e-010 -3.18055e-015 8.94531e-016
Spine  8.50837 -0.259793 -5.05769
Spine1  12.0667 -2.1035 5.82022
HEad  -11.4026 0.452402 5.35161
LeftShoulder1  0 -2.69403e-036 -1.28585e-037
LeftArm  15.7424 59.949 -87.8335
LeftForeArm  -41.0035 -23.432 11.1073
LeftHand  0.809364 5.46064 -3.6124
RightShoulder  -2.48481e-017 0 -8.08114e-019
RightArm  39.3582 -48.271 82.706
RightForeArm  -50.0764 21.0199 -18.4387
RightHand  1.18407 -11.4804 -1.28283
LeftUpLeg  -23.9508 -9.17051 1.51968
LeftLeg  14.1443 -3.2738 2.96535
LeftFoot  13.3519 1.36966 -5.58518
LeftToes  -8.00353e-011 5.68142e-011 4.78552e-012
127
root  94.4455 43.1917 -3.83106 -140.531 86.66 -143.835
RightUpLeg  -24.4884 2.25413 6.32348
RightLeg  12.0809 8.54919 0.932145
RightFoot  22.7028 -2.76253 8.50743
RightToes  1.74622e-010 -3.18055e-015 8.94531e-016
Spine  9.68402 -0.0799942 -4.74423
Spine1  12.5119 -2.08556 6.22184
HEad  -11.1113 -0.133076 5.03209
LeftShoulder1  0 -2.69403e-036 -1.28585e-037
LeftArm  14.0887 60.343 -87.0824
LeftForeArm  -39.7526 -23.0453 10.1751
LeftHand  0.758052 5.07475 -3.09861
RightShoulder  -2.48481e-017 0 -8.08114e-019
RightArm  36.8743 -47.8521 83.2563
RightForeArm  -48.6718 20.8834 -17.5108
RightHand  1.1917 -11.509 -1.38209
LeftUpLeg  -25.5375 -6.22476 0.866878
LeftLeg  9.51011 -5.91046 2.85315
LeftFoot  19.227 1.58401 -5.20702
LeftToes  -8.00353e-011 5.68142e-011 4.78552e-012
